{
  "accessors": [
    {
      "bufferView": 2,
      "componentType": 5126,
      "count": 36518,
      "max": [
        6.727389812469482,
        5.778666973114014,
        18.41122055053711
      ],
      "min": [
        -7.689002990722656,
        -7.2803263664245605,
        5.667397975921631
      ],
      "type": "VEC3"
    },
    {
      "bufferView": 2,
      "byteOffset": 438216,
      "componentType": 5126,
      "count": 36518,
      "max": [
        1.0,
        1.0,
        1.0
      ],
      "min": [
        -1.0,
        -1.0,
        -1.0
      ],
      "type": "VEC3"
    },
    {
      "bufferView": 3,
      "componentType": 5126,
      "count": 36518,
      "max": [
        0.9996222853660583,
        1.0,
        1.0,
        1.0
      ],
      "min": [
        -0.9987322092056274,
        -1.0,
        -1.0,
        -1.0
      ],
      "type": "VEC4"
    },
    {
      "bufferView": 1,
      "componentType": 5126,
      "count": 36518,
      "max": [
        0.9994833469390869,
        0.9985755681991577
      ],
      "min": [
        0.001941084861755371,
        0.0009228773415088654
      ],
      "type": "VEC2"
    },
    {
      "bufferView": 1,
      "byteOffset": 292144,
      "componentType": 5126,
      "count": 36518,
      "max": [
        0.9994833469390869,
        0.9985755681991577
      ],
      "min": [
        0.001941084861755371,
        0.0009228773415088654
      ],
      "type": "VEC2"
    },
    {
      "bufferView": 1,
      "byteOffset": 584288,
      "componentType": 5126,
      "count": 36518,
      "max": [
        0.9994833469390869,
        0.9985755681991577
      ],
      "min": [
        0.001941084861755371,
        0.0009228773415088654
      ],
      "type": "VEC2"
    },
    {
      "bufferView": 0,
      "componentType": 5125,
      "count": 109710,
      "type": "SCALAR"
    },
    {
      "bufferView": 2,
      "byteOffset": 876432,
      "componentType": 5126,
      "count": 45415,
      "max": [
        5.492189407348633,
        3.1240153312683105,
        10.652941703796387
      ],
      "min": [
        -5.168067455291748,
        -4.049376010894775,
        0.012127995491027832
      ],
      "type": "VEC3"
    },
    {
      "bufferView": 2,
      "byteOffset": 1421412,
      "componentType": 5126,
      "count": 45415,
      "max": [
        1.0,
        1.0,
        1.0
      ],
      "min": [
        -1.0,
        -1.0,
        -1.0
      ],
      "type": "VEC3"
    },
    {
      "bufferView": 3,
      "byteOffset": 584288,
      "componentType": 5126,
      "count": 45415,
      "max": [
        1.0,
        1.0,
        1.0,
        1.0
      ],
      "min": [
        -1.0,
        -1.0,
        -1.0,
        -1.0
      ],
      "type": "VEC4"
    },
    {
      "bufferView": 1,
      "byteOffset": 876432,
      "componentType": 5126,
      "count": 45415,
      "max": [
        0.999700129032135,
        0.9989569187164307
      ],
      "min": [
        0.001123763620853424,
        0.00020030885934829712
      ],
      "type": "VEC2"
    },
    {
      "bufferView": 1,
      "byteOffset": 1239752,
      "componentType": 5126,
      "count": 45415,
      "max": [
        0.999700129032135,
        0.9989569187164307
      ],
      "min": [
        0.001123763620853424,
        0.00020030885934829712
      ],
      "type": "VEC2"
    },
    {
      "bufferView": 1,
      "byteOffset": 1603072,
      "componentType": 5126,
      "count": 45415,
      "max": [
        0.999700129032135,
        0.9989569187164307
      ],
      "min": [
        0.001123763620853424,
        0.00020030885934829712
      ],
      "type": "VEC2"
    },
    {
      "bufferView": 0,
      "byteOffset": 438840,
      "componentType": 5125,
      "count": 140547,
      "type": "SCALAR"
    }
  ],
  "asset": {
    "extras": {
      "author": "SchrisArt (https://sketchfab.com/SchrisArt)",
      "license": "CC-BY-4.0 (http://creativecommons.org/licenses/by/4.0/)",
      "source": "https://sketchfab.com/3d-models/riot-mech-model-7b8738c8b0ed4561814856503a4642fb",
      "title": "Riot Mech Model"
    },
    "generator": "Sketchfab-12.34.0",
    "version": "2.0"
  },
  "bufferViews": [
    {
      "buffer": 0,
      "byteLength": 1001028,
      "name": "floatBufferViews",
      "target": 34963
    },
    {
      "buffer": 0,
      "byteLength": 1966392,
      "byteOffset": 1001028,
      "byteStride": 8,
      "name": "floatBufferViews",
      "target": 34962
    },
    {
      "buffer": 0,
      "byteLength": 1966392,
      "byteOffset": 2967420,
      "byteStride": 12,
      "name": "floatBufferViews",
      "target": 34962
    },
    {
      "buffer": 0,
      "byteLength": 1310928,
      "byteOffset": 4933812,
      "byteStride": 16,
      "name": "floatBufferViews",
      "target": 34962
    }
  ],
  "buffers": [
    {
      "byteLength": 6244740,
      "uri": "scene.bin"
    }
  ],
  "images": [
    {
      "uri": "textures/BodyUp_baseColor.png"
    },
    {
      "uri": "textures/BodyUp_metallicRoughness.png"
    },
    {
      "uri": "textures/BodyUp_normal.png"
    },
    {
      "uri": "textures/BodyDown_baseColor.png"
    },
    {
      "uri": "textures/BodyDown_metallicRoughness.png"
    },
    {
      "uri": "textures/BodyDown_normal.png"
    }
  ],
  "materials": [
    {
      "doubleSided": true,
      "name": "BodyUp",
      "normalTexture": {
        "index": 2
      },
      "pbrMetallicRoughness": {
        "baseColorTexture": {
          "index": 0
        },
        "metallicRoughnessTexture": {
          "index": 1
        }
      }
    },
    {
      "doubleSided": true,
      "name": "BodyDown",
      "normalTexture": {
        "index": 5
      },
      "pbrMetallicRoughness": {
        "baseColorTexture": {
          "index": 3
        },
        "metallicRoughnessTexture": {
          "index": 4
        }
      }
    }
  ],
  "meshes": [
    {
      "name": "MechModel_BodyUp_0",
      "primitives": [
        {
          "attributes": {
            "NORMAL": 1,
            "POSITION": 0,
            "TANGENT": 2,
            "TEXCOORD_0": 3,
            "TEXCOORD_1": 4,
            "TEXCOORD_2": 5
          },
          "indices": 6,
          "material": 0,
          "mode": 4
        }
      ]
    },
    {
      "name": "MechModel_BodyDown_0",
      "primitives": [
        {
          "attributes": {
            "NORMAL": 8,
            "POSITION": 7,
            "TANGENT": 9,
            "TEXCOORD_0": 10,
            "TEXCOORD_1": 11,
            "TEXCOORD_2": 12
          },
          "indices": 13,
          "material": 1,
          "mode": 4
        }
      ]
    }
  ],
  "nodes": [
    {
      "children": [
        1
      ],
      "matrix": [
        1.0,
        0.0,
        0.0,
        0.0,
        0.0,
        2.220446049250313e-16,
        -1.0,
        0.0,
        0.0,
        1.0,
        2.220446049250313e-16,
        0.0,
        0.0,
        0.0,
        0.0,
        1.0
      ],
      "name": "Sketchfab_model"
    },
    {
      "children": [
        2
      ],
      "matrix": [
        0.009999999776482582,
        0.0,
        0.0,
        0.0,
        0.0,
        0.0,
        0.009999999776482582,
        0.0,
        0.0,
        -0.009999999776482582,
        0.0,
        0.0,
        0.0,
        0.0,
        0.0,
        1.0
      ],
      "name": "8a2678e6c2ae4993a9322b48895d9a24.fbx"
    },
    {
      "children": [
        3
      ],
      "name": "RootNode"
    },
    {
      "children": [
        4,
        5
      ],
      "matrix": [
        100.0,
        0.0,
        0.0,
        0.0,
        0.0,
        -1.629206793918314e-05,
        -99.99999999999868,
        0.0,
        0.0,
        99.99999999999868,
        -1.629206793918314e-05,
        0.0,
        0.0,
        0.0,
        0.0,
        1.0
      ],
      "name": "MechModel"
    },
    {
      "mesh": 0,
      "name": "MechModel_BodyUp_0"
    },
    {
      "mesh": 1,
      "name": "MechModel_BodyDown_0"
    }
  ],
  "samplers": [
    {
      "magFilter": 9729,
      "minFilter": 9987,
      "wrapS": 10497,
      "wrapT": 10497
    }
  ],
  "scene": 0,
  "scenes": [
    {
      "name": "Sketchfab_Scene",
      "nodes": [
        0
      ]
    }
  ],
  "textures": [
    {
      "sampler": 0,
      "source": 0
    },
    {
      "sampler": 0,
      "source": 1
    },
    {
      "sampler": 0,
      "source": 2
    },
    {
      "sampler": 0,
      "source": 3
    },
    {
      "sampler": 0,
      "source": 4
    },
    {
      "sampler": 0,
      "source": 5
    }
  ]
}
